<?xml version="1.0" encoding="utf-8"?>
<!-- Generator: Adobe Illustrator 26.3.1, SVG Export Plug-In . SVG Version: 6.00 Build 0)  -->
<svg version="1.1" id="Layer_1" xmlns="http://www.w3.org/2000/svg" xmlns:xlink="http://www.w3.org/1999/xlink" x="0px" y="0px"
	 viewBox="0 0 595.3 95.2" style="enable-background:new 0 0 595.3 95.2;" xml:space="preserve">
<style type="text/css">
	.st0{fill:#F6A21C;}
	.st1{fill:#17223C;}
</style>
<g>
	<path class="st1" d="M401.7,35.4c-6.7,0-11.7,5.2-11.7,11.9c0,6.6,5,11.9,11.7,11.9c2,0,4-0.6,5.5-1.7l-6-6l3.9-4l6.2,6.2
		c1.3-1.7,2-4,2-6.4C413.3,40.7,408.3,35.4,401.7,35.4z"/>
	<path class="st1" d="M168.3,35.4c-6.7,0-11.7,5.2-11.7,11.9c0,6.6,5,11.9,11.7,11.9c6.6,0,11.6-5.3,11.6-11.9
		C179.9,40.7,174.9,35.4,168.3,35.4z"/>
	<path class="st1" d="M237.3,35.7h-5.1v9.7h5.1c3,0,5.1-1.7,5.1-4.8C242.4,37.5,240.3,35.7,237.3,35.7z"/>
	<path class="st1" d="M109.3,12.6v69.9h405.3V12.6H109.3z M144.1,53.6c0,7.3-3.2,11.3-10.1,11.3c-2.8,0-5.7-1-7.1-2v-6.4
		c1.8,1.6,3.8,2.8,6.4,2.8c3.2,0,5.2-1.9,5.2-5.7V30.3h5.7V53.6z M168.3,64.8c-10,0-17.5-7.6-17.5-17.6s7.6-17.6,17.5-17.6
		c10,0,17.5,7.6,17.5,17.6S178.3,64.8,168.3,64.8z M217.7,51.8c0,8.1-4.9,13-12.7,13s-12.7-5-12.7-13V30.3h5.7v22
		c0,4.2,2.8,7.1,7,7.1c4.2,0,6.9-2.9,6.9-7.1v-22h5.7V51.8z M244,64.3c-1.4-8-5-13.5-9.3-13.5h-2.6v13.5h-5.7v-34h10.9
		c6.5,0,11,3.6,11,9.7c0,4.9-3,7.7-6.6,8.7c4.2,2.1,7.2,7.9,8.2,15.6H244z M284.2,64.3h-5.7l-16-22v22h-5.7v-30l-2.3-3.6v-0.4h6.8
		l17.2,24.2V30.3h5.7V64.3z M312.1,35.7H299v8.7h12.1v5.5H299v9h13.1v5.5h-18.8v-34h18.8V35.7z M333.2,49.5v14.8h-5.7V49.4
		l-11.2-19.2h6.5l7.6,13.5l7.6-13.5h6.4L333.2,49.5z M378.9,35.7h-13.1v8.7h12.1v5.5h-12.1v9h13.1v5.5h-18.8v-34h18.8V35.7z
		 M419.1,61.5l-3.9,3.9l-3.6-3.6c-2.8,1.9-6.2,3-9.9,3c-10,0-17.5-7.6-17.5-17.6s7.5-17.6,17.5-17.6c10,0,17.5,7.6,17.5,17.6
		c0,4.2-1.4,7.9-3.7,10.8L419.1,61.5z M451.6,51.8c0,8.1-4.9,13-12.7,13c-7.8,0-12.7-5-12.7-13V30.3h5.7v22c0,4.2,2.8,7.1,7,7.1
		c4.2,0,6.9-2.9,6.9-7.1v-22h5.7V51.8z M466.1,64.3h-5.7v-34h5.7V64.3z M486.1,51.2H481v13.1h-5.7v-34h10.8c6.5,0,11,3.9,11,10.5
		C497,47.3,492.5,51.2,486.1,51.2z"/>
	<path class="st1" d="M486,35.7h-5v10.1h5c3,0,5.2-1.6,5.2-5S488.9,35.7,486,35.7z"/>
</g>
</svg>
