<?xml version="1.0" encoding="UTF-8"?><svg id="Layer_1" xmlns="http://www.w3.org/2000/svg" viewBox="0 0 595.28 841.89"><defs><style>.cls-1{fill:#f5a11a;fill-rule:evenodd;}</style></defs><path class="cls-1" d="M100.07,509.31l-35.15,9.45-.13,7.07v103.64l35.15-9.45,112.47-30.25,35.15-9.45,33.68-9.06,.14-.04-.14,67.69v36.4l35.15-9.45,33.1-8.9,35.15-9.45,145.85-39.22v-36.4l-145.85,39.22-35.15,9.45-33.1,8.9,.16-77.83-.16,.06V276.7l68.24-18.32,145.85-39.22v-36.4l-145.85,39.22-68.24,18.32v-73.73l-35.15,13.68v354.6l-33.68,9.06-35.15,9.45-112.47,30.25,.13-74.32h0Zm284.56-184.59l145.85-39.22v-36.4l-145.85,39.22-35.15,9.45v124.26l35.15-9.45,111.29-29.93v-36.4l-111.29,29.93v-51.47h0Zm0,162.83l111.29-29.93v-36.4l-111.29,29.93-35.15,9.45v123.61l35.15-9.45,145.85-39.22v-36.4l-145.85,39.22v-50.82h0Zm-172.22-1.41l-96.38,25.83v36.4l131.52-35.28V193.37l-35.15,13.68V486.13h0Z"/></svg>